<?xml version="1.0" standalone="no"?>
<!DOCTYPE svg PUBLIC "-//W3C//DTD SVG 20010904//EN"
 "http://www.w3.org/TR/2001/REC-SVG-20010904/DTD/svg10.dtd">
<svg version="1.0" xmlns="http://www.w3.org/2000/svg"
 width="111.000000pt" height="87.000000pt" viewBox="0 0 111.000000 87.000000"
 preserveAspectRatio="xMidYMid meet">

<g transform="translate(0.000000,87.000000) scale(0.100000,-0.100000)"
fill="#000000" stroke="none">
<path d="M773 798 c-6 -7 -20 -42 -32 -78 -18 -56 -19 -66 -7 -78 9 -10 21
-12 33 -7 16 8 16 9 -4 12 -13 3 -23 6 -23 7 0 1 7 27 16 57 30 100 53 105 83
17 27 -78 27 -78 -8 -78 -17 0 -31 -6 -35 -16 -3 -9 -6 -82 -6 -164 0 -126 -2
-149 -16 -154 -29 -11 -34 4 -34 100 0 92 -1 95 -25 104 -18 7 -25 17 -25 35
0 15 -5 35 -10 46 -10 18 -23 19 -185 19 -95 0 -180 -3 -189 -6 -11 -4 -16
-19 -16 -44 0 -31 -4 -40 -22 -46 -34 -10 -38 -21 -38 -115 0 -61 4 -90 14
-98 9 -8 94 -11 287 -9 l274 3 3 163 c2 160 3 162 25 162 47 0 53 13 33 77
-10 32 -24 68 -32 81 -16 24 -46 29 -61 10z m-105 -234 c2 -24 -2 -33 -23 -42
-21 -10 -25 -18 -25 -52 l0 -40 -130 0 -130 0 0 33 c0 39 -8 52 -37 61 -17 5
-23 15 -23 35 0 15 3 31 7 35 4 3 86 5 182 4 l176 -3 3 -31z m-333 -154 c0
-103 -4 -110 -61 -96 -23 6 -24 10 -24 95 0 48 3 91 7 95 4 4 23 6 43 4 l35
-3 0 -95z m380 0 l0 -95 -40 0 -40 0 -3 75 c-4 109 0 122 46 118 l37 -3 0 -95z
m-97 -47 l-3 -48 -127 -3 -128 -3 0 51 0 50 131 0 130 0 -3 -47z"/>
<path d="M140 176 c0 -64 1 -66 25 -66 14 0 25 5 25 10 0 6 -7 10 -15 10 -11
0 -15 12 -15 49 0 28 -4 53 -10 56 -6 4 -10 -18 -10 -59z"/>
<path d="M200 181 c0 -33 5 -63 10 -66 6 -4 10 18 10 59 0 37 -4 66 -10 66 -6
0 -10 -26 -10 -59z"/>
<path d="M234 213 c29 -119 35 -123 55 -41 13 56 14 68 2 68 -5 0 -12 -15 -16
-32 l-7 -33 -11 33 c-12 39 -32 43 -23 5z"/>
<path d="M310 175 c0 -63 1 -65 25 -65 14 0 25 5 25 10 0 6 -7 10 -15 10 -8 0
-15 9 -15 20 0 12 7 20 18 20 16 1 16 1 0 11 -22 12 -24 39 -3 39 8 0 15 5 15
10 0 6 -11 10 -25 10 -24 0 -25 -2 -25 -65z"/>
<path d="M441 217 c-18 -46 -26 -111 -13 -103 7 4 12 14 12 22 0 21 17 17 23
-5 7 -27 47 -16 47 13 1 18 3 17 18 -9 l17 -30 3 38 c2 20 1 52 -1 70 -4 29
-5 30 -12 10 l-7 -22 -19 22 c-18 22 -18 22 -20 -38 -1 -58 -1 -59 -11 -25 -6
19 -14 46 -18 60 l-8 25 -11 -28z"/>
<path d="M570 175 c0 -69 12 -82 44 -49 32 31 14 114 -24 114 -18 0 -20 -7
-20 -65z m40 0 c0 -19 -4 -37 -10 -40 -6 -4 -10 12 -10 40 0 28 4 44 10 40 6
-3 10 -21 10 -40z"/>
<path d="M680 177 l0 -63 33 1 c32 1 32 1 35 54 4 65 -12 89 -26 40 l-10 -34
-7 33 c-12 52 -25 37 -25 -31z"/>
<path d="M772 228 c-16 -16 -15 -93 2 -107 7 -6 21 -9 30 -5 23 9 23 109 0
118 -20 8 -18 8 -32 -6z m33 -29 c9 -26 -2 -72 -15 -64 -13 8 -13 85 -1 85 5
0 13 -9 16 -21z"/>
<path d="M834 213 c17 -70 27 -103 31 -103 4 0 14 33 31 103 4 16 2 27 -4 27
-6 0 -14 -15 -18 -32 l-7 -33 -10 33 c-12 39 -32 43 -23 5z"/>
<path d="M912 178 c3 -57 5 -63 26 -66 12 -2 22 1 22 7 0 6 -7 11 -15 11 -8 0
-15 9 -15 20 0 12 7 20 18 20 16 1 16 1 0 11 -22 12 -24 39 -3 39 8 0 15 5 15
10 0 6 -11 10 -25 10 -25 0 -26 -1 -23 -62z"/>
</g>
</svg>
